<?xml version="1.0" standalone="no"?>
<!DOCTYPE svg PUBLIC "-//W3C//DTD SVG 20010904//EN"
 "http://www.w3.org/TR/2001/REC-SVG-20010904/DTD/svg10.dtd">
<svg version="1.0" xmlns="http://www.w3.org/2000/svg"
 width="1254.000000pt" height="1254.000000pt" viewBox="0 0 1254.000000 1254.000000"
 preserveAspectRatio="xMidYMid meet">

<g transform="translate(0.000000,1254.000000) scale(0.100000,-0.100000)"
fill="#000000" stroke="none">
<path d="M3610 10843 c-58 -102 -128 -224 -156 -272 -40 -69 -223 -385 -567
-981 -172 -299 -706 -1223 -757 -1310 -21 -36 -120 -207 -220 -380 -100 -173
-213 -367 -250 -430 -101 -173 -419 -716 -564 -963 l-127 -218 19 -27 c11 -15
117 -193 237 -397 119 -203 230 -390 245 -415 15 -25 208 -351 427 -725 478
-812 723 -1229 982 -1665 107 -179 228 -383 270 -455 42 -71 173 -292 291
-490 118 -198 225 -379 238 -403 l24 -42 2545 2 2546 3 57 95 c31 52 93 156
137 230 87 147 393 663 588 990 403 677 749 1263 915 1550 113 194 656 1123
783 1340 66 113 148 253 182 311 l62 105 -214 370 c-118 203 -279 479 -358
614 -78 135 -223 385 -320 555 -98 171 -227 396 -288 500 -60 105 -224 390
-365 635 -140 245 -343 598 -450 785 -108 187 -316 549 -463 805 l-267 465
-2538 2 -2539 2 -105 -186z m2517 -364 c73 -24 144 -67 431 -261 119 -82 222
-148 227 -148 6 0 36 33 67 73 31 39 73 88 93 107 32 31 42 35 88 34 63 -1
136 -32 250 -107 109 -71 181 -130 353 -288 184 -169 234 -207 374 -278 83
-42 167 -74 303 -115 274 -82 389 -131 463 -194 50 -42 93 -115 123 -205 35
-104 48 -120 124 -157 53 -25 57 -31 111 -150 7 -15 36 -37 75 -57 198 -99
293 -327 223 -533 -57 -168 -205 -270 -392 -270 l-74 0 88 -87 c224 -224 339
-490 353 -818 17 -382 -103 -714 -346 -956 -96 -96 -232 -190 -337 -234 -38
-16 -72 -31 -77 -35 -4 -3 18 -46 49 -96 365 -578 790 -1259 813 -1302 l12
-22 -479 0 -478 0 -81 138 c-44 75 -174 295 -288 487 -115 193 -300 508 -413
700 -113 193 -250 427 -306 520 l-101 170 -3 -1007 -2 -1008 -390 0 -390 0 0
1915 0 1915 784 0 c468 0 826 -4 887 -10 126 -13 276 -48 384 -89 79 -31 81
-31 276 -31 196 0 197 0 250 28 37 19 64 43 86 75 99 147 44 356 -115 434 -55
27 -64 28 -252 33 -147 5 -204 10 -231 22 -21 9 -93 56 -161 105 -140 100
-142 101 -448 219 -124 48 -257 102 -296 119 l-72 33 -34 -35 c-44 -43 -98
-53 -162 -29 -24 9 -88 55 -143 102 -82 71 -122 97 -243 156 -80 39 -164 84
-187 100 -76 51 -113 149 -113 294 0 130 -41 192 -177 265 -54 29 -180 108
-280 176 -215 146 -268 173 -339 173 -73 0 -169 -51 -266 -140 -80 -74 -136
-148 -253 -335 -134 -214 -280 -380 -430 -487 -69 -50 -179 -108 -202 -108
-10 0 -13 31 -13 123 l0 123 53 62 c62 73 330 328 402 382 59 45 123 111 192
200 128 164 289 284 436 325 61 17 118 13 204 -16z m-1514 -1129 c40 100 181
416 189 425 5 6 7 -6 3 -30 -3 -22 -23 -168 -46 -323 -22 -156 -44 -307 -49
-335 -6 -27 -9 -51 -7 -53 1 -1 65 58 142 132 77 73 141 134 142 134 0 0 -21
-66 -47 -147 -27 -81 -47 -149 -45 -151 2 -2 57 39 122 90 172 136 283 220
283 213 0 -9 -243 -302 -320 -387 -34 -38 -56 -68 -48 -68 11 0 338 66 423 85
33 8 -58 -48 -233 -142 -57 -30 -102 -57 -100 -58 2 -2 190 -11 418 -19 228
-9 624 -25 880 -36 256 -11 672 -29 924 -40 252 -11 461 -21 463 -23 2 -3
-187 -7 -419 -11 -233 -4 -643 -11 -913 -16 -269 -6 -762 -13 -1094 -17 l-604
-6 54 67 c71 89 83 106 77 111 -2 2 -40 17 -84 32 l-79 28 3 37 4 38 -45 -6
-44 -6 -17 83 c-9 46 -20 97 -23 113 -4 25 -10 16 -45 -70 -22 -55 -41 -100
-42 -101 -1 -2 -18 11 -37 27 -19 16 -37 29 -41 30 -5 0 -8 -22 -8 -49 0 -26
-3 -69 -6 -94 -6 -43 -9 -47 -40 -53 -19 -3 -34 -12 -34 -19 0 -7 14 -45 30
-85 17 -40 30 -74 30 -76 0 -6 -493 -2 -679 5 l-164 6 302 75 c165 41 301 77
300 80 0 3 -35 32 -77 65 -89 70 -381 309 -432 354 -24 22 57 -15 263 -120
l299 -152 -43 79 c-23 44 -73 130 -110 191 -37 62 -62 110 -55 106 6 -4 58
-38 114 -76 57 -38 105 -67 107 -65 1 2 -48 147 -111 323 -63 176 -117 329
-120 340 -3 11 50 -72 119 -185 69 -113 149 -243 178 -290 l54 -85 6 60 c4 33
7 112 8 174 1 117 8 129 31 57 7 -21 34 -92 60 -159 45 -113 49 -118 54 -86 4
19 26 171 51 339 24 168 57 386 72 485 l28 180 5 -485 c5 -480 5 -485 23 -440z
m443 -1124 c253 -53 479 -156 689 -315 91 -70 209 -176 250 -226 l37 -45 -39
-47 c-21 -27 -128 -165 -238 -308 -109 -143 -204 -266 -211 -274 -11 -13 -29
0 -116 85 -119 115 -200 176 -313 232 -353 176 -752 113 -1047 -167 -234 -222
-352 -505 -352 -846 1 -333 108 -637 305 -861 130 -148 278 -243 466 -301 79
-24 105 -26 243 -27 133 -1 166 2 235 22 199 58 348 148 527 320 l120 116 32
-35 c17 -19 83 -93 146 -164 63 -71 163 -182 223 -248 l107 -119 -80 -87
c-175 -192 -374 -344 -585 -446 -249 -121 -448 -166 -740 -168 -99 -1 -218 5
-265 11 -934 138 -1588 1015 -1547 2072 15 380 128 736 334 1050 237 361 594
630 987 745 75 21 168 40 301 59 17 2 116 3 220 1 155 -3 213 -9 311 -29z
m3290 -4395 l6 -73 37 36 c45 44 53 45 39 5 -6 -16 -8 -32 -6 -34 2 -3 40 22
83 55 43 33 80 59 82 57 2 -3 -22 -42 -53 -87 l-58 -83 47 6 47 7 -30 -42
c-17 -22 -30 -44 -30 -48 0 -7 195 12 284 29 33 6 61 9 63 7 2 -2 -45 -25
-104 -51 -60 -26 -121 -55 -138 -63 l-30 -16 70 -16 70 -16 -60 -13 c-95 -21
-95 -22 0 -48 138 -37 142 -42 39 -42 -50 -1 -112 -4 -138 -7 -46 -7 -46 -7
-31 -30 14 -22 14 -23 -16 -26 l-31 -3 22 -27 c12 -15 19 -32 15 -38 -3 -5 12
-40 34 -78 23 -37 41 -72 41 -76 0 -4 -38 14 -86 40 -47 25 -88 43 -91 40 -4
-4 3 -37 15 -74 12 -38 22 -74 22 -81 0 -8 -28 -11 -106 -9 l-107 3 -111 322
c-61 178 -113 323 -116 323 -3 0 -36 -93 -75 -206 -38 -113 -71 -210 -73 -215
-2 -5 39 -9 92 -9 l96 0 0 -104 0 -104 -62 -7 c-95 -9 -423 -2 -421 10 1 6 41
118 88 250 48 132 102 283 121 335 18 52 53 149 77 215 l43 120 115 3 114 3
94 -263 c52 -145 103 -287 113 -316 11 -29 24 -50 29 -47 5 3 18 1 29 -5 24
-13 24 -12 4 35 -15 37 -15 38 16 82 18 24 31 46 29 47 -2 2 -24 13 -48 25
-37 19 -42 26 -38 47 4 23 1 25 -26 22 -28 -3 -31 0 -49 52 -26 76 -26 90 13
220 30 101 34 110 36 75 2 -22 6 -73 9 -114z m-3840 102 l45 -36 -3 -86 -3
-86 -77 -3 c-69 -3 -78 -1 -88 18 -10 18 -20 20 -111 20 l-101 0 -44 -36 -44
-36 0 -181 0 -181 37 -38 37 -38 106 0 c101 0 108 1 130 25 22 23 31 26 90 23
l65 -3 3 -81 3 -80 -55 -52 -55 -52 -175 0 -176 0 -110 103 -110 102 0 261 0
261 108 106 107 107 188 0 189 0 44 -37z m432 -430 l-3 -468 -100 0 -100 0 -3
468 -2 467 105 0 105 0 -2 -467z m803 435 l39 -31 0 -94 0 -93 -73 0 c-61 0
-77 3 -92 20 -16 17 -31 20 -119 20 l-100 0 -38 -37 -38 -37 0 -180 0 -180 37
-38 37 -38 104 0 c100 0 105 1 124 25 18 24 26 26 87 23 l66 -3 3 -79 c3 -88
-3 -99 -82 -157 l-39 -29 -164 0 -164 0 -87 81 c-149 140 -132 91 -132 387 l0
257 113 107 112 108 183 0 183 0 40 -32z m712 15 c3 -10 46 -133 97 -273 166
-461 223 -630 216 -638 -4 -4 -53 -7 -108 -7 l-100 0 -49 140 c-27 77 -74 211
-104 297 -30 86 -60 169 -66 185 -11 26 -17 12 -84 -187 l-72 -215 95 -5 94
-5 2 -105 1 -105 -242 -3 c-134 -1 -243 0 -243 4 0 6 36 111 214 623 58 168
106 306 106 308 0 2 53 3 119 3 104 0 119 -2 124 -17z m637 -343 l0 -360 183
-2 182 -3 0 -105 0 -105 -285 0 -285 0 -3 468 -2 467 105 0 105 0 0 -360z
m-2903 -842 l33 -32 0 -120 0 -119 -40 -34 -40 -35 31 -56 c18 -32 41 -72 51
-89 l20 -33 -74 0 -73 0 -77 143 -77 142 77 5 77 5 3 68 3 67 -86 0 -85 0 0
-215 0 -215 -60 0 -60 0 0 275 0 275 172 0 172 0 33 -32z m253 -243 l0 -275
-60 0 -60 0 0 275 0 275 60 0 60 0 0 -275z m470 243 c29 -33 29 -34 30 -154
l0 -122 -35 -31 c-34 -30 -39 -31 -125 -31 -79 0 -90 2 -90 18 0 9 -3 34 -6
54 l-6 37 68 3 69 3 3 68 3 67 -81 0 -80 0 0 -215 0 -215 -60 0 -60 0 0 275 0
275 170 0 170 0 30 -32z m363 -10 c73 -196 177 -489 177 -498 0 -7 -21 -10
-62 -8 l-62 3 -65 187 c-36 103 -68 188 -71 188 -8 0 -87 -249 -82 -255 3 -3
31 -5 62 -5 l57 0 -2 -30 c-1 -16 -2 -43 -3 -60 l-2 -30 -140 0 c-80 0 -140 4
-140 9 0 5 41 128 90 272 50 144 90 264 90 266 0 2 31 3 69 3 l68 0 16 -42z
m614 10 c31 -33 31 -34 33 -151 l1 -118 -40 -36 -41 -36 25 -44 c14 -23 37
-63 51 -88 l26 -45 -70 0 -71 0 -65 120 c-37 66 -71 131 -76 144 l-9 25 72 3
72 3 3 68 3 67 -81 0 -80 0 0 -215 0 -215 -60 0 -60 0 0 275 0 275 168 0 168
0 31 -32z m539 -237 c52 -145 94 -267 94 -272 0 -5 -27 -9 -61 -9 -71 0 -57
-21 -140 222 -30 87 -56 158 -59 158 -8 0 -88 -249 -82 -255 3 -3 29 -5 58 -5
l52 0 4 -56 c1 -31 1 -58 -1 -60 -8 -7 -281 -4 -281 4 0 4 41 128 92 275 l92
268 69 -3 69 -3 94 -264z m544 207 l0 -63 -110 -145 -109 -145 52 -7 c29 -3
78 -6 110 -7 l57 -1 0 -60 0 -60 -190 0 -190 0 1 63 0 62 113 150 113 150
-114 3 -113 3 0 59 0 60 190 0 190 0 0 -62z m210 -213 l0 -275 -60 0 -60 0 0
275 0 275 60 0 60 0 0 -275z m487 223 l53 -52 0 -170 0 -170 -52 -53 -52 -53
-109 0 -109 0 -59 51 -59 51 0 171 0 171 52 53 52 53 115 0 115 0 53 -52z
m355 -90 l83 -143 3 143 3 142 59 0 60 0 0 -275 0 -276 -57 3 -57 3 -90 159
-91 159 -3 -162 -3 -162 -57 3 -57 3 -3 273 -2 272 64 0 64 0 84 -142z m426
-130 l-3 -273 -57 0 -57 0 -2 245 c-1 135 -1 257 0 273 1 26 2 27 61 27 l60 0
-2 -272z"/>
<path d="M7372 6938 l3 -533 360 0 c315 0 370 2 440 19 197 45 338 172 395
355 22 71 27 223 9 301 -32 138 -133 264 -261 325 -125 60 -169 65 -581 65
l-367 0 2 -532z"/>
<path d="M7418 2669 c-16 -9 -18 -27 -18 -137 0 -86 4 -132 12 -140 7 -7 42
-12 88 -12 46 0 81 5 88 12 8 8 12 53 12 138 0 85 -4 130 -12 138 -15 15 -146
16 -170 1z"/>
</g>
</svg>
