<svg width="24" height="24" viewBox="0 0 24 24" fill="none" xmlns="http://www.w3.org/2000/svg">
<path d="M15.3795 15.6414L15.835 15.1885L14.7773 14.1248L14.3219 14.5777L15.3795 15.6414ZM17.3646 14.9988L19.2752 16.0374L19.9916 14.7196L18.081 13.681L17.3646 14.9988ZM19.643 18.1016L18.2223 19.5141L19.2799 20.5778L20.7006 19.1653L19.643 18.1016ZM17.3567 19.9689C15.9068 20.104 12.1556 19.9836 8.09423 15.9452L7.03659 17.0089C11.4686 21.4158 15.6869 21.631 17.4959 21.4624L17.3567 19.9689ZM8.09423 15.9452C4.22285 12.0958 3.58156 8.85815 3.50173 7.45355L2.00415 7.53866C2.10461 9.30649 2.89868 12.8945 7.03659 17.0089L8.09423 15.9452ZM9.46955 9.76491L9.75635 9.47972L8.69875 8.41605L8.41194 8.70123L9.46955 9.76491ZM9.98465 5.84451L8.7237 4.16011L7.52291 5.05905L8.78385 6.74346L9.98465 5.84451ZM4.48268 3.79349L2.91308 5.35418L3.97072 6.41786L5.54032 4.85717L4.48268 3.79349ZM8.94075 9.23307C8.41194 8.70123 8.41122 8.70194 8.4105 8.70266C8.41026 8.7029 8.40954 8.70363 8.40905 8.70412C8.40807 8.70511 8.40707 8.70611 8.40606 8.70714C8.40403 8.70921 8.40193 8.71136 8.39977 8.7136C8.39544 8.71809 8.39086 8.72295 8.38604 8.72819C8.37639 8.73866 8.3658 8.75064 8.35446 8.76417C8.33179 8.79122 8.3061 8.82453 8.2791 8.86438C8.22497 8.94427 8.16599 9.0499 8.11594 9.18274C8.01381 9.45379 7.95906 9.8111 8.0277 10.2536C8.16194 11.1188 8.75785 12.2618 10.2843 13.7796L11.3419 12.7159C9.91345 11.2955 9.57315 10.4311 9.50995 10.0236C9.47985 9.82966 9.51105 9.73421 9.51965 9.71161C9.52485 9.69763 9.52735 9.6962 9.52095 9.70575C9.51775 9.71042 9.51245 9.71773 9.50415 9.72758C9.50005 9.73251 9.49515 9.73809 9.48945 9.74431C9.48655 9.74742 9.48355 9.75069 9.48015 9.75412C9.47855 9.75584 9.47685 9.75759 9.47505 9.75939C9.47415 9.76029 9.47325 9.7612 9.47235 9.76212C9.47195 9.76258 9.47125 9.76328 9.47095 9.76351C9.47025 9.76421 9.46955 9.76491 8.94075 9.23307ZM10.2843 13.7796C11.8113 15.2979 12.9596 15.8888 13.8263 16.0218C14.2692 16.0897 14.6263 16.0355 14.8972 15.9346C15.03 15.8851 15.1358 15.8268 15.2158 15.7732C15.2558 15.7464 15.2892 15.7209 15.3163 15.6984C15.3299 15.6872 15.3419 15.6767 15.3524 15.6671C15.3577 15.6623 15.3626 15.6578 15.3671 15.6535C15.3694 15.6513 15.3715 15.6492 15.3736 15.6472C15.3746 15.6462 15.3756 15.6452 15.3766 15.6442C15.3771 15.6437 15.3779 15.643 15.3781 15.6428C15.3788 15.6421 15.3795 15.6414 14.8507 15.1095C14.3219 14.5777 14.3226 14.577 14.3233 14.5763C14.3235 14.5761 14.3242 14.5754 14.3247 14.5749C14.3256 14.574 14.3265 14.5731 14.3274 14.5722C14.3293 14.5705 14.331 14.5688 14.3327 14.5671C14.3362 14.5638 14.3395 14.5608 14.3426 14.5579C14.3488 14.5523 14.3544 14.5474 14.3594 14.5434C14.3692 14.5352 14.3765 14.53 14.381 14.5269C14.3903 14.5207 14.3884 14.5235 14.3736 14.529C14.3491 14.5381 14.251 14.5694 14.0538 14.5391C13.6405 14.4758 12.77 14.1358 11.3419 12.7159L10.2843 13.7796ZM8.7237 4.16011C7.70439 2.79852 5.70001 2.58307 4.48268 3.79349L5.54032 4.85717C6.072 4.3285 7.01628 4.38231 7.52291 5.05905L8.7237 4.16011ZM3.50173 7.45355C3.48206 7.10744 3.6408 6.7459 3.97072 6.41786L2.91308 5.35418C2.37576 5.88845 1.95334 6.64475 2.00415 7.53866L3.50173 7.45355ZM18.2223 19.5141C17.9475 19.7874 17.6529 19.9413 17.3567 19.9689L17.4959 21.4624C18.2305 21.3939 18.8324 21.0228 19.2799 20.5778L18.2223 19.5141ZM9.75635 9.47972C10.7408 8.5008 10.814 6.9524 9.98465 5.84451L8.78385 6.74346C9.18735 7.28244 9.12735 7.98988 8.69875 8.41605L9.75635 9.47972ZM19.2752 16.0374C20.093 16.482 20.2204 17.5274 19.643 18.1016L20.7006 19.1653C22.0409 17.8326 21.6276 15.6089 19.9916 14.7196L19.2752 16.0374ZM15.835 15.1885C16.219 14.8067 16.8371 14.7121 17.3646 14.9988L18.081 13.681C16.9974 13.0919 15.6526 13.2546 14.7773 14.1248L15.835 15.1885Z" fill="#1B61FD"/>
</svg>
