<svg width="62" height="62" viewBox="0 0 62 62" fill="none" xmlns="http://www.w3.org/2000/svg">
<path d="M0 21.7779C0 14.1548 0 10.3434 1.48352 7.43179C2.78847 4.87071 4.87071 2.78847 7.43179 1.48352C10.3434 0 14.1548 0 21.7779 0H39.4721C47.0951 0 50.9066 0 53.8182 1.48352C56.3793 2.78847 58.4616 4.87071 59.7664 7.43179C61.25 10.3434 61.25 14.1548 61.25 21.7779V39.4721C61.25 47.0951 61.25 50.9066 59.7664 53.8182C58.4616 56.3793 56.3793 58.4616 53.8182 59.7664C50.9066 61.25 47.0951 61.25 39.4721 61.25H21.7779C14.1548 61.25 10.3434 61.25 7.43179 59.7664C4.87071 58.4616 2.78847 56.3793 1.48352 53.8182C0 50.9066 0 47.0951 0 39.4721V21.7779Z" fill="white"/>
<path d="M43.8626 14.2695L30.7658 24.4905L17.3696 14.2695V14.2723L17.3858 14.2861V28.5982L30.6149 39.04L43.8626 29.0014V14.2695Z" fill="#EA4335"/>
<path d="M47.3005 11.7827L43.8611 14.2689V29.0008L54.6837 20.6916V15.686C54.6837 15.686 53.3701 8.53689 47.3005 11.7827Z" fill="#FBBC05"/>
<path d="M43.8611 29.0006V48.1082H52.1561C52.1561 48.1082 54.5166 47.8652 54.6864 45.1746V20.6914L43.8611 29.0006Z" fill="#34A853"/>
<path d="M17.3864 48.1234V28.5958L17.3696 28.582L17.3864 48.1234Z" fill="#C5221F"/>
<path d="M17.3691 14.2709L13.9485 11.7986C7.87892 8.55276 6.5625 15.6991 6.5625 15.6991V20.7045L17.3691 28.583V14.2709Z" fill="#C5221F"/>
<path d="M17.3696 14.2734V28.5856L17.3864 28.5994V14.2873L17.3696 14.2734Z" fill="#C5221F"/>
<path d="M6.5625 20.707V45.1902C6.72976 47.8837 9.09285 48.1241 9.09285 48.1241H17.3879L17.3691 28.5827L6.5625 20.707Z" fill="#4285F4"/>
</svg>
