<svg width="70" height="70" viewBox="0 0 70 70" fill="none" xmlns="http://www.w3.org/2000/svg">
<g clip-path="url(#clip0_39_259)">
<path fill-rule="evenodd" clip-rule="evenodd" d="M37.3893 70H3.86346C1.7291 70 0 68.2698 0 66.1363V3.86344C0 1.72937 1.72938 0 3.86346 0H66.1368C68.2703 0 70 1.72937 70 3.86344V66.1363C70 68.2701 68.2701 70 66.1368 70H48.299V42.8921H57.3978L58.7603 32.3277H48.299V25.583C48.299 22.5244 49.1483 20.44 53.5344 20.44L59.1286 20.4376V10.9887C58.1611 10.8599 54.8403 10.5723 50.9768 10.5723C42.9112 10.5723 37.3893 15.4956 37.3893 24.5368V32.3277H28.267V42.8921H37.3893V70Z" fill="#4460A0"/>
</g>
<defs>
<clipPath id="clip0_39_259">
<rect width="70" height="70" fill="white"/>
</clipPath>
</defs>
</svg>
