<svg width="70" height="70" viewBox="0 0 70 70" fill="none" xmlns="http://www.w3.org/2000/svg">
<g clip-path="url(#clip0_39_267)">
<path d="M17.7502 69.7524C13.5872 69.5631 11.3258 68.8703 9.82168 68.2836C7.82863 67.5077 6.4077 66.5839 4.91188 65.0902C3.41605 63.5965 2.49027 62.1755 1.71843 60.1825C1.13175 58.6783 0.438969 56.4169 0.249651 52.254C0.0416085 47.754 0 46.4038 0 35.0031C0 23.6024 0.0457693 22.2543 0.24757 17.7502C0.436889 13.5872 1.13383 11.33 1.71635 9.82168C2.49235 7.82863 3.41814 6.4077 4.9098 4.9098C6.40354 3.41605 7.82447 2.48819 9.8196 1.71635C11.3237 1.12967 13.5852 0.436889 17.7481 0.24757C22.2501 0.0416085 23.6024 0 34.999 0C46.3997 0 47.7478 0.0457693 52.2519 0.24757C56.4148 0.436889 58.6721 1.13383 60.1804 1.71635C62.1734 2.48819 63.5944 3.41605 65.0902 4.9098C66.586 6.40354 67.5077 7.82655 68.2836 9.8196C68.8703 11.3237 69.5631 13.5852 69.7524 17.7481C69.9584 22.2522 70 23.6003 70 35.001C70 46.3976 69.9584 47.7499 69.7524 52.254C69.5631 56.4169 68.8662 58.6783 68.2836 60.1825C67.5077 62.1755 66.5839 63.5965 65.0902 65.0902C63.5965 66.5839 62.1734 67.5077 60.1804 68.2836C58.6763 68.8703 56.4148 69.5631 52.2519 69.7524C47.752 69.9584 46.3997 70 34.999 70C23.6024 70 22.2501 69.9605 17.7502 69.7524Z" fill="url(#paint0_radial_39_267)"/>
<path d="M17.7502 69.7524C13.5872 69.5631 11.3258 68.8703 9.82168 68.2836C7.82863 67.5077 6.4077 66.5839 4.91188 65.0902C3.41605 63.5965 2.49027 62.1755 1.71843 60.1825C1.13175 58.6783 0.438969 56.4169 0.249651 52.254C0.0416085 47.754 0 46.4038 0 35.0031C0 23.6024 0.0457693 22.2543 0.24757 17.7502C0.436889 13.5872 1.13383 11.33 1.71635 9.82168C2.49235 7.82863 3.41814 6.4077 4.9098 4.9098C6.40354 3.41605 7.82447 2.48819 9.8196 1.71635C11.3237 1.12967 13.5852 0.436889 17.7481 0.24757C22.2501 0.0416085 23.6024 0 34.999 0C46.3997 0 47.7478 0.0457693 52.2519 0.24757C56.4148 0.436889 58.6721 1.13383 60.1804 1.71635C62.1734 2.48819 63.5944 3.41605 65.0902 4.9098C66.586 6.40354 67.5077 7.82655 68.2836 9.8196C68.8703 11.3237 69.5631 13.5852 69.7524 17.7481C69.9584 22.2522 70 23.6003 70 35.001C70 46.3976 69.9584 47.7499 69.7524 52.254C69.5631 56.4169 68.8662 58.6783 68.2836 60.1825C67.5077 62.1755 66.5839 63.5965 65.0902 65.0902C63.5965 66.5839 62.1734 67.5077 60.1804 68.2836C58.6763 68.8703 56.4148 69.5631 52.2519 69.7524C47.752 69.9584 46.3997 70 34.999 70C23.6024 70 22.2501 69.9605 17.7502 69.7524Z" fill="url(#paint1_radial_39_267)"/>
<path d="M26.4058 35.1498C26.4058 30.3626 30.2855 26.4807 35.0728 26.4807C39.8601 26.4807 43.7419 30.3626 43.7419 35.1498C43.7419 39.9371 39.8601 43.8189 35.0728 43.8189C30.2855 43.8189 26.4058 39.9371 26.4058 35.1498ZM21.7194 35.1498C21.7194 42.5249 27.6977 48.5032 35.0728 48.5032C42.4479 48.5032 48.4262 42.5249 48.4262 35.1498C48.4262 27.7747 42.4479 21.7964 35.0728 21.7964C27.6977 21.7964 21.7196 27.7743 21.7196 35.1498M45.8344 21.267C45.8342 21.8842 46.0169 22.4876 46.3596 23.0009C46.7023 23.5142 47.1895 23.9144 47.7597 24.1508C48.3298 24.3872 48.9572 24.4493 49.5626 24.3291C50.168 24.2089 50.7242 23.912 51.1608 23.4757C51.5974 23.0394 51.8948 22.4835 52.0155 21.8782C52.1361 21.2729 52.0746 20.6455 51.8386 20.0751C51.6026 19.5048 51.2029 19.0173 50.6898 18.6742C50.1768 18.3311 49.5735 18.1478 48.9563 18.1476H48.955C48.1277 18.1479 47.3344 18.4767 46.7493 19.0616C46.1642 19.6464 45.8351 20.4396 45.8344 21.267ZM24.5667 56.3177C22.0312 56.2022 20.6532 55.7799 19.7374 55.4231C18.5232 54.9505 17.6569 54.3875 16.7461 53.4779C15.8353 52.5684 15.2715 51.7029 14.8009 50.4888C14.4439 49.5734 14.0216 48.1949 13.9064 45.6595C13.7803 42.9183 13.7551 42.0949 13.7551 35.1502C13.7551 28.2056 13.7824 27.3844 13.9064 24.641C14.0218 22.1056 14.4473 20.7298 14.8009 19.8117C15.2736 18.5976 15.8366 17.7313 16.7461 16.8205C17.6557 15.9097 18.5212 15.3459 19.7374 14.8753C20.6528 14.5183 22.0312 14.0959 24.5667 13.9807C27.3078 13.8546 28.1313 13.8294 35.0728 13.8294C42.0143 13.8294 42.8386 13.8563 45.5821 13.9811C48.1175 14.0966 49.4932 14.522 50.4113 14.8757C51.6255 15.3463 52.4918 15.9113 53.4026 16.8209C54.3134 17.7304 54.8751 18.598 55.3478 19.8121C55.7048 20.7275 56.1271 22.106 56.2423 24.6414C56.3684 27.3848 56.3936 28.206 56.3936 35.1507C56.3936 42.0953 56.3684 42.9165 56.2423 45.6599C56.1269 48.1953 55.7025 49.5734 55.3478 50.4892C54.8751 51.7033 54.3121 52.5696 53.4026 53.4783C52.493 54.3871 51.6255 54.9509 50.4113 55.4235C49.496 55.7805 48.1175 56.2029 45.5821 56.3181C42.8409 56.4442 42.0175 56.4694 35.0728 56.4694C28.1281 56.4694 27.307 56.4442 24.5667 56.3181M24.3513 9.30202C21.5829 9.42809 19.6912 9.86706 18.0391 10.5099C16.3292 11.1738 14.8798 12.0644 13.4324 13.5095C11.9851 14.9545 11.0967 16.4042 10.4329 18.1161C9.79004 19.7693 9.35107 21.6599 9.22499 24.4284C9.09684 27.2011 9.0675 28.0876 9.0675 35.1498C9.0675 42.212 9.09684 43.0985 9.22499 45.8713C9.35107 48.6399 9.79004 50.5304 10.4329 52.1835C11.0967 53.8934 11.9853 55.3457 13.4324 56.7902C14.8796 58.2346 16.3271 59.124 18.0391 59.7897C19.6943 60.4326 21.5829 60.8715 24.3513 60.9976C27.1256 61.1237 28.0106 61.1551 35.0728 61.1551C42.135 61.1551 43.0215 61.1258 45.7943 60.9976C48.5629 60.8715 50.4534 60.4326 52.1065 59.7897C53.8164 59.124 55.2658 58.2352 56.7131 56.7902C58.1605 55.3451 59.047 53.8934 59.7127 52.1835C60.3556 50.5304 60.7966 48.6397 60.9206 45.8713C61.0467 43.0964 61.076 42.212 61.076 35.1498C61.076 28.0876 61.0467 27.2011 60.9206 24.4284C60.7945 21.6597 60.3556 19.7682 59.7127 18.1161C59.047 16.4062 58.1582 14.9568 56.7131 13.5095C55.2681 12.0621 53.8164 11.1738 52.1085 10.5099C50.4534 9.86706 48.5627 9.42601 45.7963 9.30202C43.0231 9.17532 42.1371 9.14453 35.0759 9.14453C28.0148 9.14453 27.1266 9.17387 24.3524 9.30202" fill="white"/>
</g>
<defs>
<radialGradient id="paint0_radial_39_267" cx="0" cy="0" r="1" gradientUnits="userSpaceOnUse" gradientTransform="translate(4.53033 68.4665) scale(88.874)">
<stop offset="0.09" stop-color="#FA8F21"/>
<stop offset="0.78" stop-color="#D82D7E"/>
</radialGradient>
<radialGradient id="paint1_radial_39_267" cx="0" cy="0" r="1" gradientUnits="userSpaceOnUse" gradientTransform="translate(48.4866 66.2188) scale(78.21)">
<stop offset="0.64" stop-color="#8C3AAA" stop-opacity="0"/>
<stop offset="1" stop-color="#8C3AAA"/>
</radialGradient>
<clipPath id="clip0_39_267">
<rect width="70" height="70" fill="white"/>
</clipPath>
</defs>
</svg>
