<svg width="70" height="70" viewBox="0 0 70 70" fill="none" xmlns="http://www.w3.org/2000/svg">
<g clip-path="url(#clip0_39_252)">
<path fill-rule="evenodd" clip-rule="evenodd" d="M34.9899 0C15.695 0 0 15.6994 0 34.9997C0 42.654 2.46844 49.7526 6.66459 55.5143L2.30357 68.518L15.7565 64.2185C21.2896 67.881 27.8927 70 35.0101 70C54.305 70 70 54.3001 70 35.0003C70 15.7 54.305 0.000578562 35.0101 0.000578562L34.9899 0ZM25.2187 17.7783C24.5401 16.1529 24.0257 16.0914 22.9976 16.0495C22.6475 16.0292 22.2574 16.0089 21.8249 16.0089C20.4873 16.0089 19.0888 16.3997 18.2453 17.2638C17.2171 18.3131 14.6662 20.7614 14.6662 25.7822C14.6662 30.8029 18.3277 35.6588 18.8212 36.3382C19.3355 37.0165 25.9595 47.4692 36.2444 51.7293C44.2872 55.0625 46.6738 54.7536 48.5043 54.3627C51.1782 53.7867 54.5315 51.8106 55.375 49.4245C56.2185 47.0372 56.2185 45 55.9712 44.568C55.7245 44.136 55.0452 43.8897 54.0171 43.3746C52.9889 42.8601 47.9899 40.391 47.0436 40.0617C46.1177 39.7121 45.2335 39.8358 44.5345 40.8236C43.547 42.2022 42.5805 43.6017 41.7985 44.4449C41.1813 45.1034 40.1729 45.1859 39.33 44.8357C38.1985 44.363 35.0311 43.2509 31.1223 39.7737C28.0983 37.0786 26.0414 33.7251 25.4452 32.7169C24.8484 31.6885 25.3836 31.091 25.8561 30.5358C26.3705 29.8976 26.864 29.4452 27.3784 28.8483C27.8927 28.2519 28.1807 27.943 28.5099 27.2432C28.8599 26.5644 28.6126 25.8646 28.3658 25.3501C28.1191 24.8356 26.0623 19.8148 25.2187 17.7783Z" fill="#67C15E"/>
</g>
<defs>
<clipPath id="clip0_39_252">
<rect width="70" height="70" fill="white"/>
</clipPath>
</defs>
</svg>
